<svg version="1.1" id="Layer_1" xmlns="http://www.w3.org/2000/svg" xmlns:xlink="http://www.w3.org/1999/xlink" x="0px" y="0px"
	 width="100%" viewBox="0 0 419 453" enable-background="new 0 0 419 453" xml:space="preserve">
<path fill="#0D0D0D" opacity="1.000000" stroke="none" d="M283.000000,454.000000 C188.693558,454.000000 94.887100,454.000000 1.040328,454.000000 C1.040328,303.070160 1.040328,152.140305 1.040328,1.105224 C140.556427,1.105224 280.112976,1.105224 419.834747,1.105224 C419.834747,151.999847 419.834747,302.999908 419.834747,454.000000 C374.473633,454.000000 328.986816,454.000000 283.000000,454.000000z"/>
<path fill="#F2F2F2" opacity="1.000000" stroke="none" d="M27.741644,233.969543 C27.652460,232.908859 27.563276,231.848190 27.925766,230.371872 C30.797802,228.210098 30.829412,226.843964 27.743885,225.973709 C27.636734,225.322983 27.435543,224.672195 27.435879,224.021515 C27.455713,185.602936 27.492182,147.184372 28.009111,108.336327 C28.993406,107.245346 29.495647,106.583824 29.997887,105.922302 C48.431458,105.819054 66.865013,105.635956 85.298599,105.632950 C107.893768,105.629265 130.488953,105.776253 153.806610,106.215744 C158.359558,106.690331 162.190018,106.807266 166.020477,106.924210 C166.187759,106.888451 166.355057,106.852699 166.957062,107.214424 C169.597870,107.728706 171.803940,107.845505 174.010025,107.962311 C192.635254,110.682808 209.566681,117.773308 224.939575,128.432037 C242.921265,140.899536 256.489990,157.314163 266.270172,176.083664 C252.702621,190.162003 239.329590,204.038498 225.801163,218.076218 C218.288544,209.322983 210.850494,201.247498 204.078735,192.647400 C188.509766,172.874878 168.138870,164.672363 143.299011,165.453644 C124.495270,166.045059 105.660591,165.652725 86.007278,165.952637 C83.626389,169.893112 82.639565,173.549606 85.741768,176.991150 C85.812111,178.389435 85.882454,179.787704 85.498856,181.716873 C83.722244,185.610550 82.524529,188.964157 85.761696,191.991516 C85.824226,193.067261 85.886757,194.143021 85.485565,195.740631 C84.685173,196.972061 84.056450,197.680801 84.054405,198.391357 C83.998146,217.885086 83.978943,237.379120 84.076988,256.872498 C84.082230,257.914856 85.164452,258.951752 85.745323,259.991211 C85.813049,261.067078 85.880775,262.142975 85.484238,263.741638 C84.679993,265.782623 84.071083,267.296417 84.046410,268.819702 C83.937485,275.545807 83.996750,282.274597 83.619034,288.994690 C81.957115,287.884796 80.062424,287.027191 79.502563,285.633392 C77.980637,281.844513 77.826744,277.300964 75.668777,274.017181 C71.688553,267.960480 71.733192,260.975769 71.624741,254.710342 C71.508942,248.020599 69.574623,244.139236 64.804901,241.714417 C61.926502,242.186127 59.446465,243.367310 57.540485,242.756668 C52.256966,241.063950 49.871128,244.449417 47.216110,247.650360 C44.956024,250.375168 42.880989,253.258698 40.541672,255.911118 C38.020805,258.769440 33.598995,261.050171 38.539436,265.486603 C38.990868,265.891968 38.918968,267.077698 38.819538,267.866943 C38.171154,273.013550 37.629910,278.184631 36.679325,283.277863 C36.132904,286.205627 34.883717,289.002228 33.950878,291.857849 C33.357258,291.857910 32.763634,291.858002 32.170010,291.858063 C31.630478,284.190033 30.853336,276.529327 30.616446,268.851959 C30.366125,260.739319 30.681353,252.610550 30.637804,244.489410 C30.625452,242.185760 30.437132,239.834290 29.917215,237.600708 C29.612673,236.292404 28.494055,235.173599 27.741644,233.969543z"/>
<path fill="#F46200" opacity="1.000000" stroke="none" d="M277.104095,181.035049 C287.282166,170.279831 297.460266,159.524597 308.270081,148.870865 C308.962555,150.507278 309.146271,152.049210 309.059601,153.575760 C308.847809,157.306198 308.707672,161.013748 312.204529,163.500183 C323.646149,171.635712 335.713470,177.619965 350.456543,175.125763 C352.402710,174.796524 354.630066,175.759460 356.655701,176.363678 C359.186035,177.118484 361.735809,177.924530 364.113861,179.052704 C372.849152,183.196808 381.985992,181.118454 391.427917,180.998840 C393.567963,181.000320 395.280090,181.001129 396.992188,181.001923 C397.052155,188.362488 397.112091,195.723053 396.840302,203.733994 C396.666840,205.254288 396.825134,206.124191 396.983459,206.994110 C397.043182,209.699936 397.102905,212.405746 396.646454,215.556396 C389.697601,217.118683 383.014465,216.571671 377.056458,220.445099 C369.086517,225.626526 358.023956,222.980865 352.157410,215.480957 C349.971466,212.686447 347.237122,210.039581 344.206451,208.251617 C339.390076,205.410156 337.498932,206.692322 336.860016,212.298676 C336.497864,212.267960 336.135712,212.237259 335.128021,211.996368 C330.968018,210.460571 327.789795,210.406845 324.883606,213.424820 C324.165863,214.170212 321.949615,214.437012 321.062775,213.888397 C317.208557,211.504120 313.455017,210.297684 308.852264,211.801254 C307.488403,212.246765 305.483063,210.878281 303.820587,210.217850 C302.145172,209.552292 300.590302,208.292160 298.878754,208.060715 C292.530457,207.202240 286.152710,206.409210 279.760620,206.068344 C272.917572,205.703384 269.191101,200.516922 272.003418,194.189575 C273.453247,190.927689 275.842834,188.093002 277.452515,184.886932 C277.944000,183.908035 277.253357,182.335648 277.104095,181.035049z"/>
<path fill="#F76C00" opacity="1.000000" stroke="none" d="M391.000000,180.998169 C381.985992,181.118454 372.849152,183.196808 364.113861,179.052704 C361.735809,177.924530 359.186035,177.118484 356.655701,176.363678 C354.630066,175.759460 352.402710,174.796524 350.456543,175.125763 C335.713470,177.619965 323.646149,171.635712 312.204529,163.500183 C308.707672,161.013748 308.847809,157.306198 309.059601,153.575760 C309.146271,152.049210 308.962555,150.507278 308.541931,148.704895 C316.903717,139.043549 325.625458,129.649628 334.964783,120.256660 C340.209656,125.095909 344.960815,129.823151 349.428467,134.804642 C353.647644,139.509155 360.158936,142.181458 363.679443,139.752197 C368.538208,136.399506 373.121307,136.287628 378.022003,139.456161 C379.386993,140.338684 381.044250,140.819504 382.620819,141.314484 C386.521698,142.539230 390.013947,142.766586 392.514587,138.416763 C393.234406,137.164642 395.467499,136.782486 397.006805,136.001480 C397.067505,143.027084 397.128235,150.052673 396.691467,157.557541 C395.530792,158.432816 394.360443,158.746277 394.280518,159.237228 C393.101868,166.477020 392.068146,173.740387 391.000000,180.998169z"/>
<path fill="#EF4D00" opacity="1.000000" stroke="none" d="M185.084290,249.996765 C185.084290,233.218018 185.084290,216.439270 185.084290,198.012177 C198.728836,210.907684 211.537628,223.013290 224.690918,235.567719 C225.486008,236.613541 226.311432,237.747589 226.334183,237.731705 C230.492874,234.828857 232.907608,238.541412 234.898697,240.644363 C239.503601,245.507950 244.982224,248.062637 251.407272,249.054062 C257.770966,250.036026 264.115112,251.178131 270.503693,251.955490 C276.469421,252.681458 281.020355,259.412384 287.922150,256.002563 C287.939575,255.993958 288.094513,256.263611 288.185211,256.403320 C281.487366,262.741669 274.789520,269.080017 267.534973,275.641083 C263.895599,274.388214 260.885620,272.727570 257.712494,271.482574 C253.464935,269.816010 249.140015,268.303497 244.760345,267.026520 C237.469986,264.900909 229.074707,266.439972 223.013016,260.130493 C221.862198,258.932648 219.761658,258.216736 218.034897,258.077545 C210.738953,257.489380 203.383453,257.503876 196.125000,256.654785 C193.325500,256.327301 190.651947,254.421082 188.068924,252.970718 C186.889343,252.308350 186.068069,251.007843 185.084290,249.996765z"/>
<path fill="#ED4400" opacity="1.000000" stroke="none" d="M396.955658,306.996765 C396.955658,325.614563 396.955658,344.232391 396.955658,363.063599 C376.872101,363.063599 357.143311,363.063599 336.926331,363.063599 C336.926331,342.477051 336.926331,322.198578 337.357971,301.508698 C338.669464,302.022125 339.675171,302.857483 340.407379,303.887299 C343.534515,308.285583 346.354492,312.921997 349.713745,317.130524 C353.964508,322.455994 368.674316,326.755371 375.305756,325.459900 C379.940216,324.554596 383.032501,322.097992 385.504089,318.253235 C387.560059,315.055023 389.859406,311.968384 392.403564,309.150665 C393.442200,308.000397 395.410370,307.689514 396.955658,306.996765z"/>
<path fill="#F25900" opacity="1.000000" stroke="none" d="M276.800201,181.181168 C277.253357,182.335648 277.944000,183.908035 277.452515,184.886932 C275.842834,188.093002 273.453247,190.927689 272.003418,194.189575 C269.191101,200.516922 272.917572,205.703384 279.760620,206.068344 C286.152710,206.409210 292.530457,207.202240 298.878754,208.060715 C300.590302,208.292160 302.145172,209.552292 303.820587,210.217850 C305.483063,210.878281 307.488403,212.246765 308.852264,211.801254 C313.455017,210.297684 317.208557,211.504120 321.062775,213.888397 C321.949615,214.437012 324.165863,214.170212 324.883606,213.424820 C327.789795,210.406845 330.968018,210.460571 334.858948,211.952484 C324.115662,222.699371 312.995911,233.279938 301.228394,243.843506 C296.943481,241.504303 293.586823,238.328934 289.615479,237.023438 C278.680756,233.428757 267.821625,228.614105 255.711945,232.103333 C253.678543,232.689224 250.919693,231.821899 248.930115,230.789505 C248.394638,230.511673 249.177292,227.056122 249.841339,225.236801 C251.215958,221.470688 250.068253,213.703964 247.592865,211.861496 C257.227356,201.683426 266.861816,191.505356 276.800201,181.181168z"/>
<path fill="#EE4600" opacity="1.000000" stroke="none" d="M184.992767,250.451752 C186.068069,251.007843 186.889343,252.308350 188.068924,252.970718 C190.651947,254.421082 193.325500,256.327301 196.125000,256.654785 C203.383453,257.503876 210.738953,257.489380 218.034897,258.077545 C219.761658,258.216736 221.862198,258.932648 223.013016,260.130493 C229.074707,266.439972 237.469986,264.900909 244.760345,267.026520 C249.140015,268.303497 253.464935,269.816010 257.712494,271.482574 C260.885620,272.727570 263.895599,274.388214 267.330353,275.923981 C256.618561,286.704834 245.554657,297.425446 234.104965,308.519897 C229.844696,304.562653 225.726654,300.795837 221.673172,296.960724 C212.023941,287.831360 202.772705,278.234283 192.638245,269.682251 C186.421860,264.436554 183.418381,258.848694 184.992767,250.451752z"/>
<path fill="#FA7400" opacity="1.000000" stroke="none" d="M397.097168,135.540009 C395.467499,136.782486 393.234406,137.164642 392.514587,138.416763 C390.013947,142.766586 386.521698,142.539230 382.620819,141.314484 C381.044250,140.819504 379.386993,140.338684 378.022003,139.456161 C373.121307,136.287628 368.538208,136.399506 363.679443,139.752197 C360.158936,142.181458 353.647644,139.509155 349.428467,134.804642 C344.960815,129.823151 340.209656,125.095909 335.268250,120.119019 C338.821960,115.863472 342.580841,111.634460 346.626251,107.700104 C347.789703,106.568596 349.774017,105.720009 351.391541,105.703873 C366.383667,105.554382 381.377899,105.615547 397.187531,105.615547 C397.187531,115.591202 397.187531,125.334862 397.097168,135.540009z"/>
<path fill="#F05200" opacity="1.000000" stroke="none" d="M247.310730,212.011017 C250.068253,213.703964 251.215958,221.470688 249.841339,225.236801 C249.177292,227.056122 248.394638,230.511673 248.930115,230.789505 C250.919693,231.821899 253.678543,232.689224 255.711945,232.103333 C267.821625,228.614105 278.680756,233.428757 289.615479,237.023438 C293.586823,238.328934 296.943481,241.504303 300.931519,243.982697 C297.115875,248.117264 292.949280,252.095657 288.483948,256.238678 C288.094513,256.263611 287.939575,255.993958 287.922150,256.002563 C281.020355,259.412384 276.469421,252.681458 270.503693,251.955490 C264.115112,251.178131 257.770966,250.036026 251.407272,249.054062 C244.982224,248.062637 239.503601,245.507950 234.898697,240.644363 C232.907608,238.541412 230.492874,234.828857 226.334183,237.731705 C226.311432,237.747589 225.486008,236.613541 225.022385,235.683624 C232.349091,227.620667 239.688843,219.890594 247.310730,212.011017z"/>
</svg>
